<?xml version="1.0" encoding="iso-8859-1"?>
<!-- Generator: Adobe Illustrator 19.1.0, SVG Export Plug-In . SVG Version: 6.00 Build 0)  -->
<svg version="1.1" id="Capa_1" xmlns="http://www.w3.org/2000/svg" xmlns:xlink="http://www.w3.org/1999/xlink" x="0px" y="0px"
	 viewBox="0 0 66.5 66.5" style="enable-background:new 0 0 66.5 66.5;" xml:space="preserve">
<g>
	<g id="group-63svg">
		<path id="path-1_58_" style="fill:#53ECF4;" d="M66.5,35c0,16.569-13.432,30-30,30c-16.569,0-30-13.431-30-30
			c0-16.568,13.431-30,30-30C53.068,5,66.5,18.432,66.5,35z"/>
		<path id="path-2_58_" d="M31.5,64.5C14.131,64.5,0,50.369,0,33S14.131,1.5,31.5,1.5S63,15.631,63,33S48.869,64.5,31.5,64.5z
			 M31.5,4.5C15.785,4.5,3,17.285,3,33s12.785,28.5,28.5,28.5S60,48.715,60,33S47.215,4.5,31.5,4.5z"/>
		<path id="path-3_58_" d="M43.333,40.451c-2.404,0-4.36-1.956-4.36-4.359c0-2.404,1.956-4.36,4.36-4.36s4.36,1.956,4.36,4.36
			C47.693,38.495,45.737,40.451,43.333,40.451z M43.333,34.732c-0.75,0-1.36,0.61-1.36,1.36s0.61,1.359,1.36,1.359
			s1.36-0.609,1.36-1.359S44.083,34.732,43.333,34.732z"/>
		<path id="path-4_50_" d="M43.333,46.18c-5.562,0-10.088-4.526-10.088-10.088c0-5.563,4.526-10.088,10.088-10.088
			c5.563,0,10.088,4.525,10.088,10.088C53.421,41.654,48.896,46.18,43.333,46.18z M43.333,29.004c-3.908,0-7.088,3.18-7.088,7.088
			s3.18,7.088,7.088,7.088s7.088-3.18,7.088-7.088S47.241,29.004,43.333,29.004z"/>
		<path id="path-5_28_" d="M20.509,40.451c-2.404,0-4.36-1.956-4.36-4.359c0-2.404,1.956-4.36,4.36-4.36s4.36,1.956,4.36,4.36
			C24.869,38.495,22.913,40.451,20.509,40.451z M20.509,34.732c-0.75,0-1.36,0.61-1.36,1.36s0.61,1.359,1.36,1.359
			s1.36-0.609,1.36-1.359S21.259,34.732,20.509,34.732z"/>
		<path id="path-6_24_" d="M20.509,46.18c-5.563,0-10.088-4.526-10.088-10.088c0-5.563,4.525-10.088,10.088-10.088
			c5.562,0,10.088,4.525,10.088,10.088C30.597,41.654,26.071,46.18,20.509,46.18z M20.509,29.004c-3.908,0-7.088,3.18-7.088,7.088
			s3.18,7.088,7.088,7.088s7.088-3.18,7.088-7.088S24.417,29.004,20.509,29.004z"/>
		<path id="path-7_18_" d="M40.36,37.353c-0.829,0-1.5-0.672-1.5-1.5V24.565l-3.193-6.555c-0.227-0.465-0.198-1.014,0.076-1.452
			c0.275-0.439,0.755-0.705,1.272-0.705h4.15c0.417,0,0.816,0.174,1.1,0.479l2.326,2.507c0.564,0.607,0.528,1.557-0.079,2.12
			c-0.608,0.564-1.555,0.527-2.12-0.079l-1.881-2.027h-1.096l2.294,4.709c0.099,0.205,0.151,0.429,0.151,0.657v11.634
			C41.86,36.681,41.189,37.353,40.36,37.353z"/>
		<path id="path-8_12_" d="M20.799,34.348c-0.312,0-0.627-0.097-0.896-0.298c-0.664-0.495-0.801-1.436-0.305-2.099l6.337-8.495
			c0.283-0.38,0.729-0.603,1.202-0.603H39.86c0.829,0,1.5,0.672,1.5,1.5c0,0.828-0.671,1.5-1.5,1.5H27.89l-5.888,7.891
			C21.708,34.14,21.256,34.348,20.799,34.348z"/>
		<path id="path-9_6_" d="M33.86,36.853h-4c-0.829,0-1.5-0.672-1.5-1.5c0-0.828,0.671-1.5,1.5-1.5h4c0.829,0,1.5,0.672,1.5,1.5
			C35.36,36.181,34.689,36.853,33.86,36.853z"/>
		<path id="path-10_4_" d="M27.308,26.41c-0.73,0-1.37-0.533-1.482-1.277l-0.441-2.939c-0.123-0.82,0.442-1.583,1.261-1.707
			c0.821-0.124,1.583,0.442,1.706,1.261l0.441,2.94c0.123,0.819-0.441,1.583-1.261,1.706C27.457,26.405,27.382,26.41,27.308,26.41z"
			/>
		<path id="path-11_2_" d="M29.86,20.353c0,0.828-0.671,1.5-1.5,1.5h-5c-0.829,0-1.5-0.672-1.5-1.5l0,0c0-0.828,0.671-1.5,1.5-1.5h5
			C29.189,18.853,29.86,19.525,29.86,20.353L29.86,20.353z"/>
	</g>
</g>
<g>
</g>
<g>
</g>
<g>
</g>
<g>
</g>
<g>
</g>
<g>
</g>
<g>
</g>
<g>
</g>
<g>
</g>
<g>
</g>
<g>
</g>
<g>
</g>
<g>
</g>
<g>
</g>
<g>
</g>
</svg>
